# xmcd CD database file
#
# Track frame offsets:
#	150
#	11302
#	24272
#	37050
#	51287
#	62735
#	75330
#	85542
#	98895
#	111867
#	128230
#	142805
#	154982
#	163557
#	176860
#	188812
#	200585
#	213347
#	226275
#	239347
#	252955
#	269470
#
# Disc length: 3810 seconds
#
# Revision: 0
# Processed by: cddbd v1.4PL0 Copyright (c) Steve Scherf et al.
# Submitted via: CDex 1.40Beta9
#
DISCID=240ee016
DTITLE=Elmore James - Dust My Broom The Best Of Elmore James Part 2
DYEAR=1900
DGENRE=Blues
TTITLE0=Done Somebody Wrong
TTITLE1=Early One Morning
TTITLE2=Got To Move
TTITLE3=Stranger Blues
TTITLE4=Person To Person
TTITLE5=Mean Mistreating Mama
TTITLE6=Bobby's Rock
TTITLE7=My Kind Of Woman
TTITLE8=I'm Worried
TTITLE9=You Know You Done Me Wrong
TTITLE10=Strange Angel
TTITLE11=I Can't Stop Loving You
TTITLE12=She Done Moved
TTITLE13=Held My Baby Last Night
TTITLE14=Poor Little Angel Child
TTITLE15=So Unkind
TTITLE16=Dust My Broom
TTITLE17=Make My Dreams Come True
TTITLE18=Talk To Me Baby
TTITLE19=Look Up On The Wall
TTITLE20=The Twelve Year Old Boy
TTITLE21=I Gotta Go Now
EXTD=ID3G: 0
EXTT0=
EXTT1=
EXTT2=
EXTT3=
EXTT4=
EXTT5=
EXTT6=
EXTT7=
EXTT8=
EXTT9=
EXTT10=
EXTT11=
EXTT12=
EXTT13=
EXTT14=
EXTT15=
EXTT16=
EXTT17=
EXTT18=
EXTT19=
EXTT20=
EXTT21=
PLAYORDER=
